<svg width="50" height="50" viewBox="0 0 50 50" fill="none" xmlns="http://www.w3.org/2000/svg">
<path d="M24.9969 0C18.2016 0 17.3547 0.0328125 14.6953 0.145313C12.025 0.276562 10.2188 0.690625 8.625 1.30938C6.95697 1.93909 5.44635 2.92502 4.19844 4.19844C2.92147 5.44343 1.93499 6.95489 1.30938 8.625C0.690625 10.2188 0.276562 12.025 0.145313 14.6953C0.025 17.3562 0 18.2016 0 24.9969C0 31.7922 0.0328125 32.6391 0.145313 35.2984C0.276562 37.9609 0.690625 39.775 1.30938 41.3688C1.93909 43.0368 2.92502 44.5474 4.19844 45.7953C5.44343 47.0723 6.95489 48.0588 8.625 48.6844C10.2188 49.2953 12.0328 49.7172 14.6953 49.8484C17.3562 49.9688 18.2016 49.9938 24.9969 49.9938C31.7922 49.9938 32.6391 49.9609 35.2984 49.8484C37.9609 49.7172 39.775 49.2938 41.3688 48.6844C43.0368 48.0547 44.5474 47.0687 45.7953 45.7953C47.0739 44.5517 48.0607 43.0398 48.6844 41.3688C49.2953 39.775 49.7172 37.9609 49.8484 35.2984C49.9688 32.6375 49.9937 31.7922 49.9937 24.9969C49.9937 18.2016 49.9609 17.3547 49.8484 14.6953C49.7172 12.0328 49.2937 10.2094 48.6844 8.625C48.0547 6.95697 47.0687 5.44635 45.7953 4.19844C44.5517 2.91983 43.0398 1.93309 41.3688 1.30938C39.775 0.690625 37.9609 0.276562 35.2984 0.145313C32.6375 0.025 31.7922 0 24.9969 0ZM24.9969 4.5C31.6703 4.5 32.4672 4.53281 35.1047 4.64531C37.5375 4.75938 38.8625 5.16563 39.7422 5.50938C40.8297 5.91082 41.814 6.54977 42.6234 7.37969C43.4519 8.18567 44.0885 9.16773 44.4859 10.2531C44.8297 11.1328 45.2359 12.4578 45.35 14.8906C45.4625 17.5281 45.4953 18.3266 45.4953 24.9984C45.4953 31.6703 45.4625 32.4688 45.3406 35.1063C45.2094 37.5391 44.8031 38.8641 44.4609 39.7438C43.9875 40.9172 43.4594 41.7375 42.5875 42.625C41.7754 43.4497 40.7917 44.0856 39.7062 44.4875C38.8375 44.8312 37.4937 45.2375 35.0516 45.3516C32.4 45.4641 31.6188 45.4969 24.9281 45.4969C18.2375 45.4969 17.4578 45.4641 14.8031 45.3422C12.3703 45.2109 11.0281 44.8047 10.1484 44.4625C8.96094 43.9891 8.14688 43.4609 7.275 42.5891C6.39531 41.7094 5.83594 40.8719 5.40469 39.7078C5.05469 38.8391 4.65469 37.4953 4.525 35.0531C4.43594 32.4328 4.39375 31.6203 4.39375 24.9609C4.39375 18.3047 4.43594 17.4906 4.525 14.8375C4.65469 12.3953 5.05469 11.0547 5.40469 10.1828C5.83594 8.99375 6.39688 8.18125 7.275 7.30156C8.14531 6.43125 8.96094 5.86875 10.1484 5.42812C11.0281 5.08594 12.3375 4.67969 14.7797 4.55781C17.4313 4.4625 18.2125 4.42813 24.8938 4.42813L24.9969 4.5ZM24.9969 12.1672C23.3115 12.1666 21.6425 12.4981 20.0852 13.1428C18.528 13.7875 17.1131 14.7327 15.9213 15.9245C14.7296 17.1162 13.7843 18.5311 13.1396 20.0884C12.495 21.6456 12.1634 23.3146 12.1641 25C12.1634 26.6854 12.495 28.3544 13.1396 29.9116C13.7843 31.4689 14.7296 32.8838 15.9213 34.0755C17.1131 35.2673 18.528 36.2125 20.0852 36.8572C21.6425 37.5019 23.3115 37.8334 24.9969 37.8328C26.6823 37.8334 28.3513 37.5019 29.9085 36.8572C31.4657 36.2125 32.8807 35.2673 34.0724 34.0755C35.2642 32.8838 36.2094 31.4689 36.8541 29.9116C37.4988 28.3544 37.8303 26.6854 37.8297 25C37.8303 23.3146 37.4988 21.6456 36.8541 20.0884C36.2094 18.5311 35.2642 17.1162 34.0724 15.9245C32.8807 14.7327 31.4657 13.7875 29.9085 13.1428C28.3513 12.4981 26.6823 12.1666 24.9969 12.1672ZM24.9969 33.3328C20.3906 33.3328 16.6641 29.6062 16.6641 25C16.6641 20.3938 20.3906 16.6672 24.9969 16.6672C29.6031 16.6672 33.3297 20.3938 33.3297 25C33.3297 29.6062 29.6031 33.3328 24.9969 33.3328ZM41.3469 11.6547C41.346 12.451 41.0291 13.2145 40.4657 13.7773C39.9023 14.3401 39.1385 14.6563 38.3422 14.6562C37.9484 14.6563 37.5585 14.5787 37.1947 14.428C36.8309 14.2773 36.5004 14.0565 36.222 13.778C35.9435 13.4996 35.7227 13.1691 35.572 12.8053C35.4213 12.4415 35.3438 12.0516 35.3438 11.6578C35.3438 11.2641 35.4213 10.8741 35.572 10.5104C35.7227 10.1466 35.9435 9.81603 36.222 9.5376C36.5004 9.25917 36.8309 9.0383 37.1947 8.88762C37.5585 8.73693 37.9484 8.65937 38.3422 8.65937C39.9937 8.65937 41.3469 10.0031 41.3469 11.6547Z" fill="#545454"/>
</svg>
